# xmcd
#
# Track frame offsets: 
#        182
#        13907
#        25757
#        38807
#        53132
#        66557
#        80057
#        92807
#        106457
#        119807
#        132332
#        146732
#        161357
#        174032
#        187682
#        202232
#        215357
#        229307
#
# Disc length: 3225 seconds
#
# Revision: 3
# Processed by: cddbd v1.5.2PL0 Copyright (c) Steve Scherf et al.
# Submitted via: ExactAudioCopy v0.99pb4
#
DISCID=060c9712
DTITLE=Maria Andergast Und Hans Lang Und Das Orchester Hans Lang - Mar
DTITLE=iandl
DYEAR=1989
DGENRE=Pop
TTITLE0=Mariandl
TTITLE1=A Fesche Katz Braucht An Feschen Kater
TTITLE2=Auf Der Alm, Da Gibt's Ka Sund
TTITLE3=Hast Du Noch Ein Mutterlein
TTITLE4=Harmonika-Hansl
TTITLE5=Der Faule Michele
TTITLE6=A Gitarr' Und A Jodler
TTITLE7=Der Alte Tausendfussler
TTITLE8=Du Bist Die Rose Vom Worthersee
TTITLE9=Spatzenlied
TTITLE10=Jager-Hosentrager
TTITLE11=Der Seppl Hat G'lacht
TTITLE12=Tramhapertes Menscherl
TTITLE13=Der Herr Torero
TTITLE14=Plim-Plam-Plum
TTITLE15=Halt Dein Fahrrad Parat
TTITLE16=Bauernsamba
TTITLE17=Es Kann Im Paradies Nicht Schoner Sein
EXTD=
EXTT0=
EXTT1=
EXTT2=
EXTT3=
EXTT4=
EXTT5=
EXTT6=
EXTT7=
EXTT8=
EXTT9=
EXTT10=
EXTT11=
EXTT12=
EXTT13=
EXTT14=
EXTT15=
EXTT16=
EXTT17=
PLAYORDER=
